<svg xmlns="http://www.w3.org/2000/svg" viewBox="0 0 64 64"><rect width="64" height="64" rx="10" fill="#2496ED"/><rect x="12" y="28" width="8" height="7" rx="1" fill="white"/><rect x="22" y="28" width="8" height="7" rx="1" fill="white"/><rect x="32" y="28" width="8" height="7" rx="1" fill="white"/><rect x="22" y="20" width="8" height="7" rx="1" fill="white"/><rect x="32" y="20" width="8" height="7" rx="1" fill="white"/><rect x="32" y="12" width="8" height="7" rx="1" fill="white"/><path d="M10 40 Q12 48 22 48 L44 48 C52 48 54 40 52 36 C50 36 48 38 46 36 C45 30 40 34 38 36 L10 36 Z" fill="none" stroke="white" stroke-width="2" stroke-linejoin="round"/><circle cx="50" cy="32" r="2" fill="white"/></svg>
