<svg xmlns="http://www.w3.org/2000/svg" viewBox="0 0 24 24">
  <rect x="5" y="5" width="14" height="14" rx="1" fill="#4285F4"/>
  <rect x="7" y="7" width="3" height="3" rx="0.5" fill="white"/>
  <rect x="11" y="7" width="3" height="3" rx="0.5" fill="white"/>
  <rect x="7" y="11" width="3" height="3" rx="0.5" fill="white"/>
  <rect x="11" y="11" width="3" height="3" rx="0.5" fill="white"/>
  <line x1="9" y1="3" x2="9" y2="5" stroke="#4285F4" stroke-width="1.5" stroke-linecap="round"/>
  <line x1="12" y1="3" x2="12" y2="5" stroke="#4285F4" stroke-width="1.5" stroke-linecap="round"/>
  <line x1="15" y1="3" x2="15" y2="5" stroke="#4285F4" stroke-width="1.5" stroke-linecap="round"/>
  <line x1="9" y1="19" x2="9" y2="21" stroke="#4285F4" stroke-width="1.5" stroke-linecap="round"/>
  <line x1="12" y1="19" x2="12" y2="21" stroke="#4285F4" stroke-width="1.5" stroke-linecap="round"/>
  <line x1="15" y1="19" x2="15" y2="21" stroke="#4285F4" stroke-width="1.5" stroke-linecap="round"/>
  <line x1="3" y1="9" x2="5" y2="9" stroke="#4285F4" stroke-width="1.5" stroke-linecap="round"/>
  <line x1="3" y1="12" x2="5" y2="12" stroke="#4285F4" stroke-width="1.5" stroke-linecap="round"/>
  <line x1="3" y1="15" x2="5" y2="15" stroke="#4285F4" stroke-width="1.5" stroke-linecap="round"/>
  <line x1="19" y1="9" x2="21" y2="9" stroke="#4285F4" stroke-width="1.5" stroke-linecap="round"/>
  <line x1="19" y1="12" x2="21" y2="12" stroke="#4285F4" stroke-width="1.5" stroke-linecap="round"/>
  <line x1="19" y1="15" x2="21" y2="15" stroke="#4285F4" stroke-width="1.5" stroke-linecap="round"/>
</svg>
