<svg xmlns="http://www.w3.org/2000/svg" viewBox="0 0 24 24">
  <ellipse cx="12" cy="5.5" rx="8" ry="2.5" fill="#0078D4"/>
  <path fill="#0078D4" d="M4 5.5V9c0 1.38 3.58 2.5 8 2.5S20 10.38 20 9V5.5"/>
  <path fill="#0078D4" d="M4 9v4c0 1.38 3.58 2.5 8 2.5s8-1.12 8-2.5V9"/>
  <path fill="#0078D4" d="M4 13v4c0 1.38 3.58 2.5 8 2.5s8-1.12 8-2.5v-4"/>
  <path fill="white" opacity="0.3" d="M4 9v4c0 1.38 3.58 2.5 8 2.5s8-1.12 8-2.5V9"/>
  <path fill="white" opacity="0.5" d="M4 13v4c0 1.38 3.58 2.5 8 2.5s8-1.12 8-2.5v-4"/>
</svg>
